<?xml version="1.0" encoding="UTF-8"?>
<!DOCTYPE svg PUBLIC "-//W3C//DTD SVG 1.1//EN" "http://www.w3.org/Graphics/SVG/1.1/DTD/svg11.dtd">
<!-- Creator: CorelDRAW X7 -->
<svg xmlns="http://www.w3.org/2000/svg" xml:space="preserve" width="2000mm" height="734.149mm" version="1.1" style="shape-rendering:geometricPrecision; text-rendering:geometricPrecision; image-rendering:optimizeQuality; fill-rule:evenodd; clip-rule:evenodd"
viewBox="0 0 2004 736"
 xmlns:xlink="http://www.w3.org/1999/xlink">
 <defs>
  <style type="text/css">
   <![CDATA[
    .fil0 {fill:#00AAFF;fill-rule:nonzero}
   ]]>
  </style>
 </defs>
 <g id="Слой_x0020_1">
  <metadata id="CorelCorpID_0Corel-Layer"/>
  <g id="_2182151867824">
   <g>
    <polygon class="fil0" points="633,223 802,223 807,386 809,386 879,223 1047,223 987,520 885,520 933,287 930,287 824,520 729,520 720,287 717,287 670,520 573,520 "/>
    <polygon class="fil0" points="1203,223 1143,520 1029,520 1090,223 "/>
    <path class="fil0" d="M1428 223c62,0 101,38 101,88 0,56 -43,125 -147,125l-66 0 -17 84 -113 0 60 -297 182 0zm-100 143l0 0 27 0c44,0 58,-24 58,-44 0,-9 -5,-29 -39,-29l-32 0 -14 73z"/>
    <polygon class="fil0" points="1873,223 1855,311 1755,311 1713,520 1599,520 1642,311 1541,311 1559,223 "/>
   </g>
   <g>
    <path class="fil0" d="M8 581c10,1 21,1 31,0 9,0 17,-2 24,-4 22,-7 28,-17 33,-38 26,-120 48,-241 74,-361 11,-54 20,-96 32,-125 6,-16 13,-29 21,-38 18,-20 47,-20 66,0 20,22 31,63 43,112 34,165 69,329 103,493 4,16 7,31 11,42 5,15 7,21 15,21 1,0 3,0 4,-2 4,-4 11,-24 16,-42 4,-11 7,-21 10,-27 14,-32 49,-30 80,-31l1218 0 -8 43 -1195 0c-46,0 -51,3 -65,47 -6,16 -12,34 -23,46 -8,11 -20,19 -38,19 -52,0 -63,-67 -72,-105 -32,-156 -64,-312 -97,-468 -6,-22 -11,-45 -17,-68 -6,-23 -11,-36 -20,-36 -8,0 -13,11 -19,36l-89 425c-4,26 -9,52 -27,74 -18,22 -46,36 -93,36 -3,0 -24,0 -26,0l8 -49z"/>
    <polygon class="fil0" points="1821,649 1836,560 2004,603 "/>
   </g>
  </g>
 </g>
</svg>
