<svg xmlns="http://www.w3.org/2000/svg" width="55.92cm" height="12.44cm" viewBox="0 0 1585.11 352.53"><path d="M63.29,211.53a51,51,0,0,0,23.35,11.1l-.12.38-3.6,11.4H54.83Z" fill="#233d7d"/><path d="M120.54,188.18v-.07l-11.67-36.78-14.66,47c-8.53,1.65-17.79,1.88-26.06-.15l.12-.27,17.18-46.65v0h0l6.81-18.4v0l2.45-6.62H123.3l15.5,42.13A63,63,0,0,1,120.54,188.18Z" fill="#233d7d"/><path d="M163.06,234.41H135.24l-6.62-20.82A48,48,0,0,0,146.37,189Z" fill="#233d7d"/><path d="M265,211a55.13,55.13,0,0,1-46,24.82c-15.24,0-28.12-5.34-39-16.18a53.59,53.59,0,0,1-16.18-39.27c0-15.4,5.34-28.44,16-39.27,10.84-10.84,23.88-16.34,39.12-16.34a55.17,55.17,0,0,1,46.18,24.82c-14.6,10.21-21.83,15.24-21.83,15.24A28.56,28.56,0,0,0,219,151.16a26.76,26.76,0,0,0-20.27,8.64,29.61,29.61,0,0,0,0,41.16A27.19,27.19,0,0,0,219,209.44a28.68,28.68,0,0,0,24.51-13.51Z" fill="#233d7d"/><path d="M351.07,234.42H279.43V126.18h70.22v22.94h-44v20.73h38.64v22.47H305.67v19.16h45.4Z" fill="#233d7d"/><path d="M434.64,234.42H369.13V126.18h26.55v85.3h39Z" fill="#233d7d"/><path d="M520.56,234.42H448.92V126.18h70.23v22.94h-44v20.73H513.8v22.47H475.16v19.16h45.4Z" fill="#233d7d"/><path d="M564.86,234.42H538.62V126.18h44.77c11.94,0,21.06,3.61,27.49,10.68a36.39,36.39,0,0,1,9.59,25.45,37.14,37.14,0,0,1-6.76,22c-4.4,6.45-10.84,10.69-19.16,12.73l26.39,37.39H590.46l-23.25-36.13h-2.35Zm0-85.3v26.55h17.28c15.71.78,15.71-27.5,0-26.55Z" fill="#233d7d"/><path d="M752.73,149.12h-28V126.18h82.16v22.94H779v85.3H752.73Z" fill="#00c0d0"/><path d="M893.33,234.42H821.69V126.18h70.22v22.94h-44v20.73h38.64v22.47H847.93v19.16h45.4Z" fill="#00c0d0"/><path d="M1004.54,211a55.1,55.1,0,0,1-46,24.82c-15.24,0-28.12-5.34-39-16.18a53.6,53.6,0,0,1-16.19-39.27,53.81,53.81,0,0,1,16-39.27c10.84-10.84,23.88-16.34,39.12-16.34a55.18,55.18,0,0,1,46.18,24.82c-14.61,10.21-21.83,15.24-21.83,15.24a28.56,28.56,0,0,0-24.35-13.67,26.74,26.74,0,0,0-20.27,8.64,29.59,29.59,0,0,0,0,41.16,27.18,27.18,0,0,0,20.27,8.48A28.66,28.66,0,0,0,983,195.93Z" fill="#00c0d0"/><path d="M1064.09,192.21h-5.83V168.16h9.94a7.83,7.83,0,0,1,6.11,2.37,8.57,8.57,0,0,1,0,11.31,7.81,7.81,0,0,1-6.11,2.34h-4.11Zm0-19v5.9h3.84c3.49.18,3.49-6.11,0-5.9Z" fill="#06bdcd"/><path d="M1081.68,171.47a12.32,12.32,0,0,1,17.38,17.46,12.28,12.28,0,0,1-17.35,0,12.45,12.45,0,0,1,0-17.46Zm13.23,13.3a6.49,6.49,0,0,0,0-9.14,6.08,6.08,0,0,0-4.54-1.92,5.94,5.94,0,0,0-4.5,1.92,6.57,6.57,0,0,0,0,9.14,6,6,0,0,0,4.5,1.89A6.11,6.11,0,0,0,1094.91,184.77Z" fill="#06bdcd"/><path d="M1121.12,171.61l2.69,10.23,4.19-13.68h6.35l-8.17,24.05h-4.5l-3-11.7-2.93,11.7h-4.54l-8.09-24.05h6.31l4.16,13.68,2.72-10.23Z" fill="#06bdcd"/><path d="M1152.36,192.21h-15.91V168.16h15.6v5.09h-9.77v4.61h8.58v5h-8.58v4.26h10.08Z" fill="#06bdcd"/><path d="M1162.21,192.21h-5.83V168.16h9.95a7.82,7.82,0,0,1,6.1,2.37,8.11,8.11,0,0,1,2.13,5.66,8.27,8.27,0,0,1-1.5,4.88,7,7,0,0,1-4.26,2.83l5.87,8.31h-6.77l-5.17-8h-.52Zm0-19v5.9h3.84c3.49.18,3.49-6.11,0-5.9Z" fill="#06bdcd"/><path d="M1194.35,192.21h-15.91V168.16H1194v5.09h-9.77v4.61h8.58v5h-8.58v4.26h10.08Z" fill="#06bdcd"/><path d="M1198.37,192.21V168.16h9.53a10,10,0,0,1,8,3.42,14.2,14.2,0,0,1,0,17.28,10,10,0,0,1-8,3.35Zm5.86-18.85V187h3.67a4.27,4.27,0,0,0,3.73-2,9.27,9.27,0,0,0,0-9.67,4.18,4.18,0,0,0-3.73-2Z" fill="#06bdcd"/><path d="M1247,177.41a4.14,4.14,0,0,1-2.58,2,5,5,0,0,1,3.46,2.06,6.28,6.28,0,0,1,1.18,3.67,7.16,7.16,0,0,1-1.92,5.06c-1.29,1.36-3.28,2.06-6,2.06h-10.54V168.16h9.84a7.71,7.71,0,0,1,5.34,1.78,5.9,5.9,0,0,1,2,4.68A5.71,5.71,0,0,1,1247,177.41Zm-10.54,0h3.14a1.88,1.88,0,0,0,2-2c0-1.46-.67-2.2-2-2.2h-3.21Zm0,4.78v4.89h3.74a2.46,2.46,0,1,0,0-4.89Z" fill="#06bdcd"/><path d="M1263.43,192.21h-5.86V181.39l-9.39-13.23h7l5.34,8.72,5.44-8.72h6.91l-9.39,13.33Z" fill="#06bdcd"/><path d="M1293.49,185.05c.1,1.4,1,2.34,3,2.34,1.64,0,3-.77,3-2.16a1.94,1.94,0,0,0-.07-.53,4.16,4.16,0,0,0-2.34-1.46l-2.82-1c-5.41-1.46-6.25-4.88-6.29-7.08a6.69,6.69,0,0,1,2.38-5.31,8.92,8.92,0,0,1,6-2.06,8.64,8.64,0,0,1,6,2,6.82,6.82,0,0,1,2.31,5.48h-5.83c0-1.5-.84-2.24-2.51-2.24s-2.55.77-2.55,1.92c0,.88.73,1.5,2.23,2l2.76.87c4.43,1.36,6.67,3.81,6.67,7.33a6.5,6.5,0,0,1-1.44,4.26,9.2,9.2,0,0,1-7.46,3.07,9.67,9.67,0,0,1-6.46-2,6.77,6.77,0,0,1-2.41-5.45Z" fill="#233d7d"/><path d="M1311.19,171.47a12.45,12.45,0,1,1-3.56,8.73A11.87,11.87,0,0,1,1311.19,171.47Zm13.22,13.3a6.47,6.47,0,0,0,0-9.14,6,6,0,0,0-4.53-1.92,6,6,0,0,0-4.51,1.92,6.57,6.57,0,0,0,0,9.14,6.35,6.35,0,0,0,9,0Z" fill="#233d7d"/><path d="M1350.38,192.21h-14.55V168.16h5.9v19h8.65Z" fill="#233d7d"/><path d="M1362.46,192.21h-5.86V181.39l-9.39-13.23h6.94l5.35,8.72,5.44-8.72h6.91l-9.39,13.33Z" fill="#233d7d"/><path d="M1373.46,192.21V168.16H1383a10,10,0,0,1,8,3.42,14.2,14.2,0,0,1,0,17.28,10,10,0,0,1-8,3.35Zm5.86-18.85V187H1383a4.27,4.27,0,0,0,3.73-2,9.27,9.27,0,0,0,0-9.67,4.18,4.18,0,0,0-3.73-2Z" fill="#233d7d"/><path d="M1413.63,192.21h-15.91V168.16h15.6v5.09h-9.77v4.61h8.58v5h-8.58v4.26h10.08Z" fill="#233d7d"/><path d="M1422,185.05c.11,1.4,1,2.34,3,2.34,1.64,0,3-.77,3-2.16a2.44,2.44,0,0,0-.07-.53,4.21,4.21,0,0,0-2.34-1.46l-2.83-1c-5.41-1.46-6.25-4.88-6.28-7.08a6.68,6.68,0,0,1,2.37-5.31,8.93,8.93,0,0,1,6-2.06,8.68,8.68,0,0,1,6,2,6.85,6.85,0,0,1,2.3,5.48h-5.83c0-1.5-.84-2.24-2.51-2.24s-2.55.77-2.55,1.92c0,.88.73,1.5,2.24,2l2.75.87q6.66,2,6.67,7.33a6.54,6.54,0,0,1-1.43,4.26,9.22,9.22,0,0,1-7.47,3.07,9.69,9.69,0,0,1-6.46-2,6.8,6.8,0,0,1-2.41-5.45Z" fill="#233d7d"/><path d="M1458.73,185.89h-5.3v5.3h-3.77v-5.3h-5.27v-3.77h5.27v-5.27h3.77v5.27h5.3Z" fill="#06bdcd"/><path d="M1470.36,168.16h5.86v15.29a3.33,3.33,0,0,0,1.08,2.58,3.78,3.78,0,0,0,2.55,1,3.66,3.66,0,0,0,2.51-1,3.33,3.33,0,0,0,1.12-2.58V168.16h5.86v15.29a8.45,8.45,0,0,1-2.82,6.56,9.64,9.64,0,0,1-6.67,2.51,9.77,9.77,0,0,1-6.7-2.51,8.52,8.52,0,0,1-2.79-6.56Z" fill="#233d7d"/><path d="M1499.92,192.21h-5.83V168.16h10a7.84,7.84,0,0,1,6.11,2.37,8.57,8.57,0,0,1,0,11.31,7.83,7.83,0,0,1-6.11,2.34h-4.12Zm0-19v5.9h3.84c3.49.18,3.49-6.11,0-5.9Z" fill="#233d7d"/><path d="M1531.72,177.41a4.17,4.17,0,0,1-2.58,2,5,5,0,0,1,3.45,2.06,6.23,6.23,0,0,1,1.19,3.67,7.16,7.16,0,0,1-1.92,5.06c-1.29,1.36-3.28,2.06-6,2.06h-10.54V168.16h9.84a7.71,7.71,0,0,1,5.34,1.78,5.9,5.9,0,0,1,2,4.68A5.82,5.82,0,0,1,1531.72,177.41Zm-10.54,0h3.14a1.88,1.88,0,0,0,2-2c0-1.46-.66-2.2-1.95-2.2h-3.21Zm0,4.78v4.89h3.73a2.46,2.46,0,1,0,0-4.89Z" fill="#233d7d"/><polygon points="715.96 188.82 708.54 168.59 692.91 126.06 664.33 126.06 661.86 132.78 655.07 151.18 637.86 197.84 633.04 210.98 624.42 234.31 652.54 234.31 656.12 222.89 663.73 198.47 678.47 151.21 690.13 188 698.23 213.45 704.84 234.31 732.67 234.31 715.96 188.82" fill="#233d7d"/><path d="M154.45,138.65a5.82,5.82,0,1,1-5.82-5.81A5.83,5.83,0,0,1,154.45,138.65Zm-30.07,46.69a51.48,51.48,0,0,1-17.08,9.37,75.31,75.31,0,0,1-22.37,4.86c.83.34,1.68.67,2.56.94A31.52,31.52,0,0,0,124.38,185.34ZM63,196.64a41.07,41.07,0,0,0,6.86,2,37.57,37.57,0,0,0,15.23,9.15,39.37,39.37,0,0,0,48.77-25.1A37.73,37.73,0,0,0,135.7,173c1.35-1.88,2.63-3.83,3.82-5.84a41.8,41.8,0,0,1-2,16.67,43.33,43.33,0,0,1-53.66,27.62A41.15,41.15,0,0,1,63,196.64Zm22.71,9.3a35.52,35.52,0,0,1-12.33-6.72,57.47,57.47,0,0,0,7.33.47,32.66,32.66,0,0,0,6.19,2.67A33.5,33.5,0,0,0,128,182.12a66.19,66.19,0,0,0,5.48-6.1,36.13,36.13,0,0,1-1.45,6.09A37.38,37.38,0,0,1,85.68,205.94Zm62.26-56.52a121,121,0,0,1-6.82,14.92,43.39,43.39,0,0,1-1.77,20.07,45.3,45.3,0,0,1-56.12,28.88,43,43,0,0,1-23.75-18.23,29.91,29.91,0,0,1-6.86-4.85.56.56,0,0,0,0,.12A46.77,46.77,0,0,0,82,216.93c25.25,7.87,52.62-6.22,61-31.37l1.85.58c-8.75,26.17-37.19,40.83-63.47,32.64a48.66,48.66,0,0,1-32.29-32.57c-.25-.34-.51-.66-.74-1-.47-.72-.92-1.5-1.35-2.3a23.54,23.54,0,0,1,.3-20.78h0a28.44,28.44,0,0,1,3.3-5.07,5,5,0,0,1,.2-.62,5,5,0,0,0-.2.62c8.12-9.89,23-14.41,34.82-5.74l6.79-18.41c-8.44-13.89-31.45-16-41.34-3.52-13.73,17.28-11.39,44-1.12,64.36,20.56,44.61,88.22,37.94,98.13-10.56C149.64,172.18,150.06,160.06,147.94,149.42Zm-93.84-.6c-.64,1.22-1.23,2.45-1.78,3.72.55-1.27,1.14-2.5,1.78-3.71l-1.67-.93Zm-3.56,3c-.57,1.33-1.1,2.69-1.56,4.07s-.78,2.56-1.09,3.85c.31-1.29.66-2.57,1.09-3.85S50,153.1,50.54,151.77Z" fill="#06bdcd"/></svg>